<?xml version="1.0" encoding="UTF-8"?>
<svg width="160px" height="60px" viewBox="0 0 160 60" version="1.1" xmlns="http://www.w3.org/2000/svg" xmlns:xlink="http://www.w3.org/1999/xlink">
    <g id="svgs" stroke="none" stroke-width="1" fill="none" fill-rule="evenodd">
        <rect id="Rectangle-8" x="0" y="0" width="160" height="60"></rect>
        <path d="M40,44.8779297 L40,43.4179688 L57.0117188,26.9775391 C58.1754615,25.8349552 59.1593384,24.8034714 59.9633789,23.8830566 C60.7674194,22.9626419 61.5608685,21.9205787 62.34375,20.7568359 C63.1266315,19.5930931 63.7137839,18.3764712 64.1052246,17.1069336 C64.4966654,15.837396 64.6923828,14.5255602 64.6923828,13.1713867 C64.6923828,9.76479417 63.6344507,6.97185334 61.5185547,4.79248047 C59.4026587,2.61310759 56.6731938,1.5234375 53.3300781,1.5234375 C50.6428902,1.5234375 48.3154395,2.17935542 46.3476562,3.49121094 C44.379873,4.80306646 42.8458714,6.71792361 41.7456055,9.23583984 L40.3173828,8.47412109 C41.5234435,5.80809214 43.2161349,3.72925551 45.3955078,2.23754883 C47.5748807,0.745842151 50.219711,0 53.3300781,0 C55.001636,0 56.6096928,0.296220996 58.1542969,0.888671875 C59.698901,1.48112275 61.0689231,2.3221788 62.2644043,3.41186523 C63.4598855,4.50155167 64.4173141,5.88744276 65.1367188,7.56958008 C65.8561234,9.2517174 66.2158203,11.097809 66.2158203,13.1079102 C66.2158203,15.6681443 65.5546127,18.1225469 64.2321777,20.4711914 C62.9097427,22.819836 60.8838027,25.3165558 58.1542969,27.9614258 L42.4755859,43.1640625 L42.4755859,43.3862305 L66.8823242,43.3862305 L66.8823242,44.8779297 L40,44.8779297 Z" id="2" fill="#3188FF"></path>
        <path d="M80,37.3242188 L81.4282227,36.6259766 C82.5073296,38.7841905 84.1471244,40.4821715 86.3476562,41.7199707 C88.5481881,42.9577699 91.245915,43.5766602 94.440918,43.5766602 C96.1547937,43.5766602 97.7628506,43.3174668 99.2651367,42.7990723 C100.767423,42.2806777 102.0581,41.5612839 103.137207,40.6408691 C104.216314,39.7204544 105.067949,38.5831773 105.692139,37.2290039 C106.316328,35.8748305 106.628418,34.3937255 106.628418,32.7856445 C106.628418,31.6430607 106.464438,30.5533906 106.136475,29.5166016 C105.808511,28.4798125 105.305993,27.5170943 104.628906,26.628418 C103.95182,25.7397417 103.121343,24.9727409 102.137451,24.3273926 C101.15356,23.6820443 99.9686755,23.1742369 98.5827637,22.8039551 C97.1968518,22.4336733 95.6787192,22.2485352 94.0283203,22.2485352 L89.7436523,22.2485352 L89.7436523,20.7568359 L94.6313477,20.7568359 C96.4721772,20.7568359 98.1066823,20.5029322 99.5349121,19.9951172 C100.963142,19.4873021 102.110998,18.7890669 102.978516,17.9003906 C103.846033,17.0117143 104.501951,16.0119684 104.946289,14.901123 C105.390627,13.7902776 105.612793,12.600104 105.612793,11.3305664 C105.612793,8.34715305 104.533702,5.96680576 102.375488,4.18945313 C100.217274,2.41210049 97.4560715,1.5234375 94.0917969,1.5234375 C89.0771234,1.5234375 85.3003057,3.33250144 82.7612305,6.95068359 L81.3647461,6.09375 C84.2846826,2.03122969 88.5269904,0 94.0917969,0 C95.9114674,0 97.6094485,0.259193372 99.185791,0.777587891 C100.762134,1.29598241 102.142735,2.03124524 103.327637,2.98339844 C104.512538,3.93555164 105.443519,5.13101494 106.120605,6.56982422 C106.797692,8.0086335 107.13623,9.60611101 107.13623,11.3623047 C107.13623,13.7321082 106.475023,15.8215242 105.152588,17.6306152 C103.830153,19.4397063 101.878268,20.7145145 99.296875,21.4550781 L99.296875,21.550293 C102.111017,22.3543334 104.290357,23.7878315 105.834961,25.8508301 C107.379565,27.9138287 108.151855,30.3417829 108.151855,33.1347656 C108.151855,35.4199333 107.554124,37.4776113 106.358643,39.3078613 C105.163161,41.1381114 103.523367,42.5610301 101.439209,43.5766602 C99.3550514,44.5922902 97.0223111,45.1000977 94.440918,45.1000977 C90.9708485,45.1000977 87.9927696,44.4018625 85.5065918,43.0053711 C83.020414,41.6088797 81.1849018,39.7151812 80,37.3242188 Z" id="3" fill="#3188FF"></path>
        <path d="M120,36.1499023 L120,34.6264648 L143.26416,0 L144.660645,0 L144.660645,34.6582031 L151.706543,34.6582031 L151.706543,36.1499023 L144.660645,36.1499023 L144.660645,44.6557617 L143.168945,44.6557617 L143.168945,36.1499023 L120,36.1499023 Z M121.809082,34.6582031 L143.168945,34.6582031 L143.168945,2.82470703 L121.809082,34.6582031 Z" id="4" fill="#3188FF"></path>
        <polygon id="1" fill="#3188FF" points="0 8.75976562 11.4257812 0 12.9174805 0 12.9174805 44.6557617 11.4257812 44.6557617 11.4257812 1.96777344 0.888671875 9.96582031"></polygon>
    </g>
</svg>