<?xml version="1.0" encoding="UTF-8"?>
<svg width="129px" height="64px" viewBox="0 0 129 64" version="1.1" xmlns="http://www.w3.org/2000/svg" xmlns:xlink="http://www.w3.org/1999/xlink">
    <!-- Generator: Sketch 49.3 (51167) - http://www.bohemiancoding.com/sketch -->
    <title>logo-dashboard</title>
    <desc>Created with Sketch.</desc>
    <defs></defs>
    <g id="logo-dashboard" stroke="none" stroke-width="1" fill="none" fill-rule="evenodd">
        <rect id="Rectangle" x="0" y="0" width="129" height="64"></rect>
        <path d="M14.9780246,36.1733021 C18.0016258,36.1733021 19.4014412,38.8711944 19.4014412,41.3442623 C19.4014412,42.3278689 17.2737218,44.5199063 17.2737218,43.8454333 C17.2737218,42.1592506 15.9578954,40.0234192 11.7584492,39.9672131 C9.60273352,45.2505855 7.25104368,50 5.57126522,50 C3.47154215,50 0,49.0725995 0,43.7892272 C0,41.0351288 3.61152369,38.1405152 8.95881845,36.8477752 C10.190656,33.587822 11.3665009,30.1311475 12.1503975,27.3770492 C10.0506744,30.7494145 6.04720245,36.6791569 5.34729476,36.6791569 C5.31929845,36.6791569 5.26330584,36.6510539 5.23530953,36.6510539 L5.23530953,36.6791569 C4.67538338,36.6791569 0.783896614,34.0936768 0.783896614,33.0819672 C0.783896614,29.793911 5.06733168,24.4262295 5.06733168,22.5714286 C5.93521722,22.5714286 9.09879998,24.6229508 9.09879998,25.6908665 C9.09879998,26.5620609 6.43915076,29.793911 5.51527261,33.6159251 C7.3350326,32.2107728 12.73832,23.470726 13.0742757,22.9086651 L13.0742757,22.8805621 C13.5502129,22.9367681 17.3297144,24.8477752 16.9097698,25.8032787 C16.6298067,26.3653396 15.1460024,31.1147541 13.2142572,36.2295082 C13.8021797,36.2014052 14.3621058,36.1733021 14.9780246,36.1733021 Z M3.94747938,47.3864169 C4.47940922,47.3864169 5.93521722,44.4355972 7.50301045,40.557377 C5.06733168,41.3442623 3.35955692,42.8056206 3.35955692,44.5199063 C3.35955692,47.1053864 3.77950153,47.3864169 3.94747938,47.3864169 Z M35.3033439,25.971897 C35.3033439,25.971897 36.2552184,24.3419204 36.2552184,27.4894614 C36.2552184,27.4894614 29.1161599,37.2131148 28.304267,37.2131148 C27.9963076,37.2131148 27.576363,37.0163934 27.2404073,36.763466 C25.9525772,36.0608899 23.936843,34.6557377 23.936843,33.7283372 L23.936843,33.5035129 C23.0689575,34.9648712 22.3690498,36.0046838 22.117083,36.0046838 C21.9491052,36.0046838 21.753131,35.9484778 21.5571569,35.8360656 C20.1013489,35.2459016 16.4058363,33.3629977 16.4058363,32.0702576 C16.4058363,28.8103044 19.6254117,22.9086651 20.9692344,22.9086651 C22.3130572,22.9086651 25.5606289,24.088993 26.6804812,25.4379391 C26.932448,25.0163934 27.1284221,24.6510539 27.2964,24.3419204 C27.7723372,23.442623 28.0523003,22.824356 28.0523003,22.6838407 C28.4442486,22.6838407 32.3357353,24.6229508 31.8877944,25.6065574 C31.4118572,26.618267 29.1721526,30.6932084 28.4442486,34.2903981 C30.9079236,31.8173302 35.3033439,25.971897 35.3033439,25.971897 Z M20.7172677,33.6440281 C20.8012566,34.9367681 24.1888098,29.5409836 26.2885329,26.0843091 C25.9805735,25.9156909 25.5886252,25.7751756 25.1406843,25.7751756 C23.4049132,25.7751756 21.0532233,31.3676815 20.7172677,33.6440281 Z M58.3163088,22.2622951 C59.3801685,22.2622951 63.4676294,24.4824356 63.4676294,26.9274005 C63.4676294,29.4004684 59.4921537,36.6791569 56.8045082,36.6791569 C54.6487925,36.6791569 53.416955,35.9203747 52.8570288,35.2177986 C52.5490694,35.9484778 52.3530953,36.4262295 52.3530953,36.4262295 C51.597195,37.1569087 47.6217193,33.7564403 47.6217193,33.3348946 C47.6217193,30.2435597 54.0328738,15.3770492 54.0328738,14 C54.508811,14 58.3163088,15.4332553 58.3163088,16.5854801 C58.3163088,18.1592506 56.5245451,21.9812646 54.9287556,26.0843091 C56.1605931,24.0046838 57.5044159,22.2622951 58.3163088,22.2622951 Z M53.9208885,34.0936768 C55.964619,34.0936768 59.3801685,26 59.3801685,24.70726 C59.3801685,24.088993 59.1841944,23.8922717 58.8482387,23.8922717 C57.6443974,23.8922717 54.8447667,30.5526932 53.3889587,33.9250585 C53.5289402,34.0374707 53.7249144,34.0936768 53.9208885,34.0936768 Z M128.083107,25.4098361 C128.083107,25.4098361 129.314945,23.8922717 128.922997,27.1522248 C128.922997,27.1522248 122.259875,36.0608899 121.783938,36.088993 C121.028038,36.0327869 116.968573,34.824356 116.968573,33.559719 C116.968573,32.9976581 117.052562,32.2388759 117.22054,31.3676815 C115.764732,33.8688525 114.504898,35.7798595 114.168943,35.7798595 C113.721002,35.7798595 109.129607,34.3747073 109.129607,32.8290398 C109.129607,27.5175644 112.881112,22.2903981 114.196939,22.2903981 C115.624751,22.2903981 118.368389,22.852459 119.124289,24.088993 C119.740208,22.9086651 121.811935,18.3840749 122.735813,15.5737705 C123.323735,15.1803279 127.355203,17.5409836 126.907263,18.5245902 C126.431325,19.5644028 122.959783,27.6580796 122.007909,32.8571429 C123.603698,31.3957845 128.083107,25.4098361 128.083107,25.4098361 Z M113.385046,33.9812646 C114.560891,32.6323185 116.604621,29.5690867 118.340392,26.6744731 C118.452378,26.2248244 118.592359,25.7470726 118.760337,25.2974239 C118.620355,25.0725995 118.424381,24.8477752 118.060429,24.8477752 C116.184677,24.8477752 113.385046,30.1311475 113.385046,33.9531616 L113.385046,33.9812646 Z" id="yayboard" fill="#2D4158"></path>
        <path d="M111.525959,26.7372449 C111.804174,27.2984694 112.304961,27.6913265 111.748531,29.3188776 C111.748531,29.3188776 103.708123,39 102.873479,39 L102.790014,39 C102.762193,39 102.70655,39 102.650907,38.9719388 C102.483978,38.9438776 102.289228,38.8596939 102.094477,38.747449 C100.870332,38.130102 98.477685,36.5586735 98.477685,35.5204082 C98.477685,33.3035714 100.731225,28.505102 102.205763,25.3903061 C101.00944,25.7831633 99.5905442,26.4005102 99.3123294,26.6530612 C99.2010435,26.6530612 98.9228287,26.5408163 98.5611494,26.372449 L96.5023599,29.0943878 C96.5023599,29.0943878 95.695537,30.2729592 95.695537,27.2704082 L96.9753251,25.4183673 C95.9459303,24.7168367 95,23.8469388 95,23.2015306 C95,21.0969388 98.1160058,17.4770408 98.1160058,17 C98.5055065,17 102.372692,18.9642857 101.927549,19.9183673 C101.565869,20.7040816 100.703403,22.0790816 100.035688,23.5943878 C101.371119,23.005102 103.235158,22.5841837 103.513373,22.5841837 L103.569016,22.5841837 C104.125445,22.752551 107.742238,25.502551 107.324916,26.4566327 C106.85195,27.494898 103.875052,32.4056122 102.984765,36.3061224 C105.655627,33.9489796 111.525959,26.7372449 111.525959,26.7372449 Z" id="r" fill="#2D4158"></path>
        <path d="M45.6681097,36.3893443 C48.6291486,36.3893443 50,39.045082 50,41.4795082 C50,42.4477459 47.9163059,44.6055328 47.9163059,43.9415984 C47.9163059,42.2817623 46.6277056,40.1793033 42.5151515,40.1239754 C40.4040404,45.3247951 38.1010101,50 36.4559885,50 C34.3997114,50 31,49.0870902 31,43.8862705 C31,41.1752049 34.5367965,38.3258197 39.7734488,37.0532787 C40.979798,33.8442623 42.1313131,30.4415984 42.8989899,27.7305328 C40.8427128,31.0502049 36.9220779,36.8872951 36.2366522,36.8872951 C36.2092352,36.8872951 36.1544012,36.8596311 36.1269841,36.8596311 L36.1269841,36.8872951 C35.5786436,36.8872951 31.7676768,34.3422131 31.7676768,33.3463115 C31.7676768,30.1096311 35.962482,24.8258197 35.962482,23 C36.8124098,23 39.9105339,25.0194672 39.9105339,26.0706967 C39.9105339,26.9282787 37.3059163,30.1096311 36.4011544,33.8719262 C38.1832612,32.4887295 43.4747475,23.8852459 43.8037518,23.3319672 L43.8037518,23.3043033 C44.2698413,23.3596311 47.97114,25.2407787 47.5598846,26.1813525 C47.2857143,26.7346311 45.8326118,31.4098361 43.9408369,36.4446721 C44.5165945,36.4170082 45.0649351,36.3893443 45.6681097,36.3893443 Z M34.8658009,47.4272541 C35.3867244,47.4272541 36.8124098,44.522541 38.3477633,40.704918 C35.962482,41.4795082 34.2900433,42.9180328 34.2900433,44.6055328 C34.2900433,47.1506148 34.7012987,47.4272541 34.8658009,47.4272541 Z" id="y" fill="#2D4158"></path>
        <path d="M80.5651747,26.0930233 C80.5651747,26.0930233 81.5244422,27.6937984 80.5933884,28.9418605 C79.8034034,29.9457364 78.4491434,30.8682171 77.1230971,31.4651163 C76.2484708,31.872093 75.3738445,32.1162791 74.527432,32.1976744 C73.0603169,34.5310078 70.7467893,37 68.3204067,37 C66.4300854,37 63.2137178,34.124031 63.0444353,32.6317829 C62.5648015,28.1550388 66.0633067,23 68.9411093,23 C70.1543006,23 72.9756757,24.9534884 73.5681644,25.496124 C74.6685007,25.6860465 75.881692,26.3100775 76.107402,28.3178295 C76.1356158,28.751938 75.9099058,29.5387597 75.4584857,30.5155039 C75.8534783,30.4069767 76.1920433,30.244186 76.4741808,30.1356589 C78.1387921,29.3488372 79.6905484,27.5852713 80.5651747,26.0930233 Z M67.840773,35.3992248 C69.0257505,35.3992248 70.5210793,33.6085271 71.6496294,31.6550388 C71.1135681,31.3837209 70.5775068,30.9224806 70.1260868,30.4069767 C69.8439493,30.0542636 69.5053843,29.5930233 69.2796743,29.0503876 C68.0946967,30.7868217 67.276498,32.875969 67.4739942,34.5852713 C67.4739942,34.7751938 67.5304217,35.3992248 67.840773,35.3992248 Z M73.3424544,27.3139535 C73.2295994,26.4728682 72.6653244,26.2286822 72.1856906,26.1472868 C71.6496294,26.4457364 71.1417818,26.879845 70.6339343,27.4224806 C70.5775068,27.5852713 70.5775068,27.748062 70.5775068,27.9379845 C70.6903618,28.8875969 71.6214156,29.9186047 72.3549731,30.3255814 C73.0038894,29.0232558 73.3988819,27.8565891 73.3424544,27.3139535 Z" id="o" fill="#2D4158"></path>
        <path d="M96.0409027,26.1682785 C96.0409027,26.1682785 97,24.5976789 97,27.6305609 C97,27.6305609 89.8067701,37 88.9887165,37 C88.6784203,37 88.2552891,36.8104449 87.9167842,36.5667311 C86.6191819,35.8897485 84.5881523,34.5357834 84.5881523,33.6421663 L84.5881523,33.4255319 C83.7136812,34.8336557 83.0084626,35.8355899 82.7545839,35.8355899 C82.5853315,35.8355899 82.3878702,35.7814313 82.190409,35.6731141 C80.7235543,35.1044487 77,33.2901354 77,32.0444874 C77,28.9032882 80.2440056,23.2166344 81.5980254,23.2166344 C82.9520451,23.2166344 86.2242595,24.3539652 87.3526093,25.6537718 C87.606488,25.2475822 87.8039492,24.8955513 87.9732017,24.5976789 C88.4527504,23.7311412 88.7348378,23.1353965 88.7348378,23 C89.1297602,23 93.0507757,24.868472 92.5994358,25.8162476 C92.1198872,26.7911025 89.8631876,30.7176015 89.1297602,34.1837524 C91.6121298,31.8007737 96.0409027,26.1682785 96.0409027,26.1682785 Z M81.3441467,33.5609284 C81.4287729,34.8065764 84.842031,29.6073501 86.9576869,26.2765957 C86.6473907,26.1141199 86.2524683,25.9787234 85.8011283,25.9787234 C84.0521862,25.9787234 81.6826516,31.3675048 81.3441467,33.5609284 Z" id="a" fill="#2D4158"></path>
    </g>
</svg>