<?xml version="1.0" encoding="UTF-8"?>
<svg width="41px" height="64px" viewBox="0 0 41 64" version="1.1" xmlns="http://www.w3.org/2000/svg" xmlns:xlink="http://www.w3.org/1999/xlink">
    <!-- Generator: Sketch 49.3 (51167) - http://www.bohemiancoding.com/sketch -->
    <title>logo</title>
    <desc>Created with Sketch.</desc>
    <defs></defs>
    <g id="logo" stroke="none" stroke-width="1" fill="none" fill-rule="evenodd">
        <rect id="Rectangle" x="0" y="0" width="41" height="64"></rect>
        <path d="M11.77,33.648 C14.146,33.648 15.246,35.76 15.246,37.696 C15.246,38.466 13.574,40.182 13.574,39.654 C13.574,38.334 12.54,36.662 9.24,36.618 C7.546,40.754 5.698,44.472 4.378,44.472 C2.728,44.472 0,43.746 0,39.61 C0,37.454 2.838,35.188 7.04,34.176 C8.008,31.624 8.932,28.918 9.548,26.762 C7.898,29.402 4.752,34.044 4.202,34.044 C4.18,34.044 4.136,34.022 4.114,34.022 L4.114,34.044 C3.674,34.044 0.616,32.02 0.616,31.228 C0.616,28.654 3.982,24.452 3.982,23 C4.664,23 7.15,24.606 7.15,25.442 C7.15,26.124 5.06,28.654 4.334,31.646 C5.764,30.546 10.01,23.704 10.274,23.264 L10.274,23.242 C10.648,23.286 13.618,24.782 13.288,25.53 C13.068,25.97 11.902,29.688 10.384,33.692 C10.846,33.67 11.286,33.648 11.77,33.648 Z M3.102,42.426 C3.52,42.426 4.664,40.116 5.896,37.08 C3.982,37.696 2.64,38.84 2.64,40.182 C2.64,42.206 2.97,42.426 3.102,42.426 Z M27.742,25.662 C27.742,25.662 28.49,24.386 28.49,26.85 C28.49,26.85 22.88,34.462 22.242,34.462 C22,34.462 21.67,34.308 21.406,34.11 C20.394,33.56 18.81,32.46 18.81,31.734 L18.81,31.558 C18.128,32.702 17.578,33.516 17.38,33.516 C17.248,33.516 17.094,33.472 16.94,33.384 C15.796,32.922 12.892,31.448 12.892,30.436 C12.892,27.884 15.422,23.264 16.478,23.264 C17.534,23.264 20.086,24.188 20.966,25.244 C21.164,24.914 21.318,24.628 21.45,24.386 C21.824,23.682 22.044,23.198 22.044,23.088 C22.352,23.088 25.41,24.606 25.058,25.376 C24.684,26.168 22.924,29.358 22.352,32.174 C24.288,30.238 27.742,25.662 27.742,25.662 Z M16.28,31.668 C16.346,32.68 19.008,28.456 20.658,25.75 C20.416,25.618 20.108,25.508 19.756,25.508 C18.392,25.508 16.544,29.886 16.28,31.668 Z" id="yay" fill="#2D4158"></path>
        <path d="M36.652,33.648 C39.028,33.648 40.128,35.76 40.128,37.696 C40.128,38.466 38.456,40.182 38.456,39.654 C38.456,38.334 37.422,36.662 34.122,36.618 C32.428,40.754 30.58,44.472 29.26,44.472 C27.61,44.472 24.882,43.746 24.882,39.61 C24.882,37.454 27.72,35.188 31.922,34.176 C32.89,31.624 33.814,28.918 34.43,26.762 C32.78,29.402 29.634,34.044 29.084,34.044 C29.062,34.044 29.018,34.022 28.996,34.022 C28.556,34.044 25.498,32.02 25.498,31.228 C25.498,28.654 28.864,24.452 28.864,23 C29.546,23 32.032,24.606 32.032,25.442 C32.032,26.124 29.942,28.654 29.216,31.646 C30.646,30.546 34.892,23.704 35.156,23.264 C35.53,23.286 38.5,24.782 38.17,25.53 C37.95,25.97 36.784,29.688 35.266,33.692 C35.728,33.67 36.168,33.648 36.652,33.648 Z M27.984,42.426 C28.402,42.426 29.546,40.116 30.778,37.08 C28.864,37.696 27.522,38.84 27.522,40.182 C27.522,42.206 27.852,42.426 27.984,42.426 Z" id="Path" fill="#2D4158"></path>
    </g>
</svg>