<?xml version="1.0" encoding="UTF-8"?>
<svg width="129px" height="64px" viewBox="0 0 129 64" version="1.1" xmlns="http://www.w3.org/2000/svg" xmlns:xlink="http://www.w3.org/1999/xlink">
    <!-- Generator: Sketch 49.3 (51167) - http://www.bohemiancoding.com/sketch -->
    <title>logo-home</title>
    <desc>Created with Sketch.</desc>
    <defs></defs>
    <g id="logo-home" stroke="none" stroke-width="1" fill="none" fill-rule="evenodd">
        <rect id="Rectangle" x="0" y="0" width="129" height="64"></rect>
        <path d="M14.98,32.552 C18.004,32.552 19.404,35.24 19.404,37.704 C19.404,38.684 17.276,40.868 17.276,40.196 C17.276,38.516 15.96,36.388 11.76,36.332 C9.604,41.596 7.252,46.328 5.572,46.328 C3.472,46.328 0,45.404 0,40.14 C0,37.396 3.612,34.512 8.96,33.224 C10.192,29.976 11.368,26.532 12.152,23.788 C10.052,27.148 6.048,33.056 5.348,33.056 C5.32,33.056 5.264,33.028 5.236,33.028 L5.236,33.056 C4.676,33.056 0.784,30.48 0.784,29.472 C0.784,26.196 5.068,20.848 5.068,19 C5.936,19 9.1,21.044 9.1,22.108 C9.1,22.976 6.44,26.196 5.516,30.004 C7.336,28.604 12.74,19.896 13.076,19.336 L13.076,19.308 C13.552,19.364 17.332,21.268 16.912,22.22 C16.632,22.78 15.148,27.512 13.216,32.608 C13.804,32.58 14.364,32.552 14.98,32.552 Z M3.948,43.724 C4.48,43.724 5.936,40.784 7.504,36.92 C5.068,37.704 3.36,39.16 3.36,40.868 C3.36,43.444 3.78,43.724 3.948,43.724 Z M35.308,22.388 C35.308,22.388 36.26,20.764 36.26,23.9 C36.26,23.9 29.12,33.588 28.308,33.588 C28,33.588 27.58,33.392 27.244,33.14 C25.956,32.44 23.94,31.04 23.94,30.116 L23.94,29.892 C23.072,31.348 22.372,32.384 22.12,32.384 C21.952,32.384 21.756,32.328 21.56,32.216 C20.104,31.628 16.408,29.752 16.408,28.464 C16.408,25.216 19.628,19.336 20.972,19.336 C22.316,19.336 25.564,20.512 26.684,21.856 C26.936,21.436 27.132,21.072 27.3,20.764 C27.776,19.868 28.056,19.252 28.056,19.112 C28.448,19.112 32.34,21.044 31.892,22.024 C31.416,23.032 29.176,27.092 28.448,30.676 C30.912,28.212 35.308,22.388 35.308,22.388 Z M20.72,30.032 C20.804,31.32 24.192,25.944 26.292,22.5 C25.984,22.332 25.592,22.192 25.144,22.192 C23.408,22.192 21.056,27.764 20.72,30.032 Z" id="yay" fill="#3A4961"></path>
        <path d="M46.648,32.552 C49.672,32.552 51.072,35.24 51.072,37.704 C51.072,38.684 48.944,40.868 48.944,40.196 C48.944,38.516 47.628,36.388 43.428,36.332 C41.272,41.596 38.92,46.328 37.24,46.328 C35.14,46.328 31.668,45.404 31.668,40.14 C31.668,37.396 35.28,34.512 40.628,33.224 C41.86,29.976 43.036,26.532 43.82,23.788 C41.72,27.148 37.716,33.056 37.016,33.056 C36.988,33.056 36.932,33.028 36.904,33.028 L36.904,33.056 C36.344,33.056 32.452,30.48 32.452,29.472 C32.452,26.196 36.736,20.848 36.736,19 C37.604,19 40.768,21.044 40.768,22.108 C40.768,22.976 38.108,26.196 37.184,30.004 C39.004,28.604 44.408,19.896 44.744,19.336 L44.744,19.308 C45.22,19.364 49,21.268 48.58,22.22 C48.3,22.78 46.816,27.512 44.884,32.608 C45.472,32.58 46.032,32.552 46.648,32.552 Z M35.616,43.724 C36.148,43.724 37.604,40.784 39.172,36.92 C36.736,37.704 35.028,39.16 35.028,40.868 C35.028,43.444 35.448,43.724 35.616,43.724 Z" id="y" fill="#3A4961"></path>
    </g>
</svg>