<?xml version="1.0" encoding="UTF-8"?>
<svg width="230px" height="15px" viewBox="0 0 230 15" version="1.1" xmlns="http://www.w3.org/2000/svg" xmlns:xlink="http://www.w3.org/1999/xlink">
    <!-- Generator: Sketch 49.3 (51167) - http://www.bohemiancoding.com/sketch -->
    <title>text-1</title>
    <desc>Created with Sketch.</desc>
    <defs></defs>
    <g id="text-1" stroke="none" stroke-width="1" fill="none" fill-rule="evenodd">
        <rect id="Rectangle" x="0" y="0" width="230" height="15"></rect>
        <path d="M0,12.1289062 L0,2.18261719 L2.36523438,2.18261719 L2.36523438,12.1289062 L0,12.1289062 Z M6.57519531,4.27441406 L6.57519531,2.18261719 L14.15625,2.18261719 L14.15625,4.27441406 L11.53125,4.27441406 L11.53125,12.1289062 L9.20019531,12.1289062 L9.20019531,4.27441406 L6.57519531,4.27441406 Z M23.5058594,12.9560547 L28.8378906,1 L30.4101562,1.72460938 L25.0986328,13.6806641 L23.5058594,12.9560547 Z M39.6162109,2.18261719 L42.1113281,2.18261719 L43.7929688,8.28710938 L43.8134766,8.28710938 L45.3515625,2.18261719 L47.8193359,2.18261719 L49.3369141,8.28710938 L49.3574219,8.28710938 L51.0390625,2.18261719 L53.5341797,2.18261719 L50.4238281,12.1289062 L48.2841797,12.1289062 L46.6162109,5.58691406 L46.5957031,5.58691406 L44.8662109,12.1289062 L42.7265625,12.1289062 L39.6162109,2.18261719 Z M57.5800781,12.1289062 L57.5800781,2.18261719 L64.0742188,2.18261719 L64.0742188,4.27441406 L59.8769531,4.27441406 L59.8769531,6.18164062 L63.1923828,6.18164062 L63.1923828,8.23925781 L59.8769531,8.23925781 L59.8769531,10.0439453 L64.3681641,10.0439453 L64.3681641,12.1289062 L57.5800781,12.1289062 Z M68.7216797,12.1289062 L68.7216797,2.18261719 L72.4746094,2.18261719 C73.0214871,2.18261719 73.5022766,2.23730414 73.9169922,2.34667969 C74.3317078,2.45605523 74.6735013,2.61555885 74.9423828,2.82519531 C75.2112644,3.03483178 75.4129225,3.28889825 75.5473633,3.58740234 C75.6818041,3.88590644 75.7490234,4.22883921 75.7490234,4.61621094 C75.7490234,4.83496203 75.7239586,5.04687397 75.6738281,5.25195312 C75.6236977,5.45703228 75.5439459,5.65869042 75.4345703,5.85693359 C75.3251948,6.05517677 75.1748056,6.23746662 74.9833984,6.40380859 C74.7919912,6.57015057 74.5664075,6.70572864 74.3066406,6.81054688 L74.3066406,6.83789062 C74.9628939,7.01562589 75.4527979,7.32096138 75.7763672,7.75390625 C76.0999365,8.18685112 76.2617188,8.72004892 76.2617188,9.35351562 C76.2617188,9.75911661 76.1956387,10.1293929 76.0634766,10.4643555 C75.9313144,10.7993181 75.7353529,11.0909818 75.4755859,11.3393555 C75.215819,11.5877291 74.8820007,11.7814121 74.4741211,11.9204102 C74.0662415,12.0594082 73.6025417,12.1289062 73.0830078,12.1289062 L68.7216797,12.1289062 Z M71.0185547,10.0849609 L72.3652344,10.0849609 C72.5839855,10.0849609 72.7822257,10.0621747 72.9599609,10.0166016 C73.1376962,9.97102842 73.2915033,9.90608766 73.4213867,9.82177734 C73.5512702,9.73746703 73.6515296,9.62923243 73.722168,9.49707031 C73.7928063,9.36490819 73.828125,9.21224045 73.828125,9.0390625 C73.828125,8.72005049 73.7050794,8.46484471 73.4589844,8.2734375 C73.2128894,8.08203029 72.8483097,7.98632812 72.3652344,7.98632812 L71.0185547,7.98632812 L71.0185547,10.0849609 Z M71.0185547,6.14746094 L72.1191406,6.14746094 C72.4882831,6.14746094 72.79134,6.06543051 73.0283203,5.90136719 C73.2653007,5.73730387 73.3837891,5.50260569 73.3837891,5.19726563 C73.3792317,4.9055975 73.2675792,4.67317795 73.0488281,4.5 C72.8346343,4.33137937 72.5110699,4.24707031 72.078125,4.24707031 L71.0185547,4.24707031 L71.0185547,6.14746094 Z M86.9511719,12.1289062 L86.9511719,2.18261719 L93.6777344,2.18261719 L93.6777344,4.27441406 L89.2548828,4.27441406 L89.2548828,6.50976562 L92.9052734,6.50976562 L92.9052734,8.58789062 L89.2548828,8.58789062 L89.2548828,12.1289062 L86.9511719,12.1289062 Z M97.9355469,12.1289062 L97.9355469,2.18261719 L101.811523,2.18261719 C102.408532,2.18261719 102.937172,2.26806555 103.397461,2.43896484 C103.85775,2.60986414 104.229165,2.85025887 104.511719,3.16015625 C104.794272,3.47005363 105.007324,3.83121539 105.150879,4.24365234 C105.294434,4.6560893 105.366211,5.11295322 105.366211,5.61425781 C105.366211,6.35254275 105.206707,6.97232822 104.887695,7.47363281 C104.568683,7.9749374 104.112959,8.34863158 103.520508,8.59472656 L103.520508,8.62890625 L105.851562,12.1289062 L103.09668,12.1289062 L101.05957,8.92285156 L100.239258,8.92285156 L100.239258,12.1289062 L97.9355469,12.1289062 Z M100.239258,6.87207031 L101.319336,6.87207031 C101.820641,6.87207031 102.215982,6.75472123 102.505371,6.52001953 C102.794761,6.28531784 102.939453,5.9651713 102.939453,5.55957031 C102.939453,5.17219858 102.801596,4.8577486 102.525879,4.61621094 C102.250161,4.37467327 101.861656,4.25390625 101.360352,4.25390625 L100.239258,4.25390625 L100.239258,6.87207031 Z M109.637695,9.21679688 C109.387043,8.58333017 109.261719,7.89746463 109.261719,7.15917969 C109.261719,6.42089475 109.387043,5.73502921 109.637695,5.1015625 C109.888348,4.46809579 110.235838,3.92692282 110.680176,3.47802734 C111.124514,3.02913187 111.665687,2.67822392 112.303711,2.42529297 C112.941735,2.17236202 113.634436,2.04589844 114.381836,2.04589844 C115.115564,2.04589844 115.798011,2.17008339 116.429199,2.41845703 C117.060387,2.66683067 117.599282,3.01318137 118.045898,3.45751953 C118.492515,3.90185769 118.843423,4.44189135 119.098633,5.07763672 C119.353842,5.71338208 119.481445,6.4072228 119.481445,7.15917969 C119.481445,7.90657926 119.353842,8.59814135 119.098633,9.23388672 C118.843423,9.86963208 118.492515,10.4096657 118.045898,10.8540039 C117.599282,11.2983421 117.060387,11.6446928 116.429199,11.8930664 C115.798011,12.14144 115.115564,12.265625 114.381836,12.265625 C113.634436,12.265625 112.941735,12.1391614 112.303711,11.8862305 C111.665687,11.6332995 111.124514,11.2835309 110.680176,10.8369141 C110.235838,10.3902972 109.888348,9.85026358 109.637695,9.21679688 Z M111.702148,7.15917969 C111.702148,7.69694279 111.81494,8.18798606 112.040527,8.63232422 C112.266114,9.07666238 112.583982,9.42870964 112.994141,9.68847656 C113.404299,9.94824349 113.866859,10.078125 114.381836,10.078125 C114.887698,10.078125 115.344562,9.95052211 115.752441,9.6953125 C116.160321,9.44010289 116.47705,9.09033425 116.702637,8.64599609 C116.928224,8.20165793 117.041016,7.70605742 117.041016,7.15917969 C117.041016,6.61230195 116.928224,6.11556213 116.702637,5.66894531 C116.47705,5.2223285 116.160321,4.87142055 115.752441,4.61621094 C115.344562,4.36100133 114.887698,4.23339844 114.381836,4.23339844 C113.866859,4.23339844 113.404299,4.36327995 112.994141,4.62304688 C112.583982,4.8828138 112.266114,5.23486106 112.040527,5.67919922 C111.81494,6.12353738 111.702148,6.61685927 111.702148,7.15917969 Z M123.848633,12.1289062 L123.848633,2.18261719 L126.193359,2.18261719 L130.02832,8.29394531 L130.055664,8.29394531 L130.055664,2.18261719 L132.393555,2.18261719 L132.393555,12.1289062 L129.980469,12.1289062 L126.207031,6.16796875 L126.179688,6.16796875 L126.179688,12.1289062 L123.848633,12.1289062 Z M136.541992,4.27441406 L136.541992,2.18261719 L144.123047,2.18261719 L144.123047,4.27441406 L141.498047,4.27441406 L141.498047,12.1289062 L139.166992,12.1289062 L139.166992,4.27441406 L136.541992,4.27441406 Z M148.271484,12.1289062 L148.271484,2.18261719 L154.765625,2.18261719 L154.765625,4.27441406 L150.568359,4.27441406 L150.568359,6.18164062 L153.883789,6.18164062 L153.883789,8.23925781 L150.568359,8.23925781 L150.568359,10.0439453 L155.05957,10.0439453 L155.05957,12.1289062 L148.271484,12.1289062 Z M159.413086,12.1289062 L159.413086,2.18261719 L161.757812,2.18261719 L165.592773,8.29394531 L165.620117,8.29394531 L165.620117,2.18261719 L167.958008,2.18261719 L167.958008,12.1289062 L165.544922,12.1289062 L161.771484,6.16796875 L161.744141,6.16796875 L161.744141,12.1289062 L159.413086,12.1289062 Z M172.694336,12.1289062 L172.694336,2.18261719 L176.132812,2.18261719 C176.907556,2.18261719 177.618486,2.30566283 178.265625,2.55175781 C178.912764,2.79785279 179.457355,3.13964625 179.899414,3.57714844 C180.341474,4.01465063 180.684406,4.54101255 180.928223,5.15625 C181.172039,5.77148745 181.293945,6.44368125 181.293945,7.17285156 C181.293945,7.90202188 181.176596,8.57193705 180.941895,9.18261719 C180.707193,9.79329732 180.374514,10.3162413 179.943848,10.7514648 C179.513181,11.1866884 178.975426,11.5250639 178.330566,11.7666016 C177.685706,12.0081392 176.966801,12.1289062 176.173828,12.1289062 L172.694336,12.1289062 Z M174.998047,10.0439453 L176.030273,10.0439453 C176.367515,10.0439453 176.684243,9.99609423 176.980469,9.90039062 C177.276694,9.80468702 177.538736,9.66910895 177.766602,9.49365234 C177.994467,9.31819574 178.190429,9.11311966 178.354492,8.87841797 C178.518556,8.64371627 178.64388,8.38053531 178.730469,8.08886719 C178.817058,7.79719906 178.860352,7.49186357 178.860352,7.17285156 C178.860352,6.62597383 178.745281,6.13151263 178.515137,5.68945312 C178.284992,5.24739362 177.964846,4.90104292 177.554688,4.65039062 C177.144529,4.39973833 176.688805,4.27441406 176.1875,4.27441406 L174.998047,4.27441406 L174.998047,10.0439453 Z" fill="#A2ABBA"></path>
    </g>
</svg>