<?xml version="1.0" encoding="UTF-8"?>
<svg width="230px" height="15px" viewBox="0 0 230 15" version="1.1" xmlns="http://www.w3.org/2000/svg" xmlns:xlink="http://www.w3.org/1999/xlink">
    <!-- Generator: Sketch 49.3 (51167) - http://www.bohemiancoding.com/sketch -->
    <title>text-2</title>
    <desc>Created with Sketch.</desc>
    <defs></defs>
    <g id="text-2" stroke="none" stroke-width="1" fill="none" fill-rule="evenodd">
        <rect id="Rectangle" x="0" y="0" width="230" height="15"></rect>
        <path d="M0,7.18652344 C0,6.61685913 0.071776626,6.07454685 0.215332031,5.55957031 C0.358887437,5.04459378 0.574217314,4.57405812 0.861328125,4.14794922 C1.14843894,3.72184032 1.49478964,3.35156407 1.90039062,3.03710938 C2.30599161,2.72265468 2.78336314,2.47884201 3.33251953,2.30566406 C3.88167592,2.13248611 4.47753585,2.04589844 5.12011719,2.04589844 C5.58952058,2.04589844 6.05435968,2.11083919 6.51464844,2.24072266 C6.9749372,2.37060612 7.43635836,2.58251806 7.89892578,2.87646484 C8.3614932,3.17041163 8.77050604,3.533852 9.12597656,3.96679688 L7.41015625,5.4296875 C7.13671738,5.10611817 6.80062048,4.83382272 6.40185547,4.61279297 C6.00309045,4.39176322 5.57584863,4.28125 5.12011719,4.28125 C4.87857952,4.28125 4.64388135,4.3108721 4.41601562,4.37011719 C4.1881499,4.42936228 3.97623796,4.51481064 3.78027344,4.62646484 C3.58430892,4.73811905 3.4042977,4.87825437 3.24023438,5.046875 C3.07617105,5.21549563 2.93603574,5.40576066 2.81982422,5.61767578 C2.7036127,5.8295909 2.61360709,6.06884632 2.54980469,6.33544922 C2.48600229,6.60205211 2.45410156,6.88574068 2.45410156,7.18652344 C2.45410156,7.7106146 2.56233616,8.18684682 2.77880859,8.61523438 C2.99528103,9.04362193 3.3085917,9.38427608 3.71875,9.63720703 C4.1289083,9.89013798 4.59602603,10.0166016 5.12011719,10.0166016 C5.55761937,10.0166016 5.98030395,9.91292421 6.38818359,9.70556641 C6.79606324,9.4982086 7.13671738,9.22363452 7.41015625,8.88183594 L9.12597656,10.3515625 C8.67024512,10.9212268 8.09831073,11.3803694 7.41015625,11.7290039 C6.72200177,12.0776385 5.95866305,12.2519531 5.12011719,12.2519531 C4.56868214,12.2519531 4.04004159,12.1824551 3.53417969,12.043457 C3.02831778,11.9044589 2.56120006,11.6948256 2.1328125,11.4145508 C1.70442494,11.1342759 1.33187007,10.7947611 1.01513672,10.3959961 C0.698403364,9.99723108 0.450033452,9.52327749 0.270019531,8.97412109 C0.0900056104,8.4249647 0,7.82910478 0,7.18652344 Z M13.171875,7.97949219 L13.171875,2.18261719 L15.5302734,2.18261719 L15.5302734,7.82910156 C15.5302734,8.13899895 15.5678707,8.42838407 15.6430664,8.69726562 C15.7182621,8.96614718 15.8264967,9.20312397 15.9677734,9.40820312 C16.1090502,9.61328228 16.29134,9.77506451 16.5146484,9.89355469 C16.7379568,10.0120449 16.990884,10.0712891 17.2734375,10.0712891 C17.7975287,10.0712891 18.2247705,9.87077023 18.5551758,9.46972656 C18.8855811,9.06868289 19.0507812,8.52181336 19.0507812,7.82910156 L19.0507812,2.18261719 L21.4023438,2.18261719 L21.4023438,7.97949219 C21.4023438,8.84538193 21.2439794,9.59960616 20.9272461,10.2421875 C20.6105127,10.8847688 20.1399771,11.382648 19.515625,11.7358398 C18.8912729,12.0890317 18.1438846,12.265625 17.2734375,12.265625 C16.6582,12.265625 16.0987981,12.1710621 15.5952148,11.9819336 C15.0916316,11.792805 14.6598325,11.5193703 14.2998047,11.1616211 C13.9397768,10.8038719 13.6617848,10.3538439 13.4658203,9.81152344 C13.2698558,9.26920302 13.171875,8.65853204 13.171875,7.97949219 Z M26.0292969,12.1289062 L26.0292969,2.18261719 L28.3808594,2.18261719 L28.3808594,10.0439453 L32.5507812,10.0439453 L32.5507812,12.1289062 L26.0292969,12.1289062 Z M35.4619141,4.27441406 L35.4619141,2.18261719 L43.0429688,2.18261719 L43.0429688,4.27441406 L40.4179688,4.27441406 L40.4179688,12.1289062 L38.0869141,12.1289062 L38.0869141,4.27441406 L35.4619141,4.27441406 Z M47.0888672,7.97949219 L47.0888672,2.18261719 L49.4472656,2.18261719 L49.4472656,7.82910156 C49.4472656,8.13899895 49.4848629,8.42838407 49.5600586,8.69726562 C49.6352543,8.96614718 49.7434889,9.20312397 49.8847656,9.40820312 C50.0260424,9.61328228 50.2083322,9.77506451 50.4316406,9.89355469 C50.654949,10.0120449 50.9078762,10.0712891 51.1904297,10.0712891 C51.7145208,10.0712891 52.1417627,9.87077023 52.472168,9.46972656 C52.8025733,9.06868289 52.9677734,8.52181336 52.9677734,7.82910156 L52.9677734,2.18261719 L55.3193359,2.18261719 L55.3193359,7.97949219 C55.3193359,8.84538193 55.1609716,9.59960616 54.8442383,10.2421875 C54.5275049,10.8847688 54.0569693,11.382648 53.4326172,11.7358398 C52.8082651,12.0890317 52.0608767,12.265625 51.1904297,12.265625 C50.5751922,12.265625 50.0157903,12.1710621 49.512207,11.9819336 C49.0086238,11.792805 48.5768247,11.5193703 48.2167969,11.1616211 C47.856769,10.8038719 47.578777,10.3538439 47.3828125,9.81152344 C47.186848,9.26920302 47.0888672,8.65853204 47.0888672,7.97949219 Z M59.9462891,12.1289062 L59.9462891,2.18261719 L63.8222656,2.18261719 C64.4192738,2.18261719 64.9479144,2.26806555 65.4082031,2.43896484 C65.8684919,2.60986414 66.2399074,2.85025887 66.5224609,3.16015625 C66.8050144,3.47005363 67.0180657,3.83121539 67.1616211,4.24365234 C67.3051765,4.6560893 67.3769531,5.11295322 67.3769531,5.61425781 C67.3769531,6.35254275 67.2174495,6.97232822 66.8984375,7.47363281 C66.5794255,7.9749374 66.1237009,8.34863158 65.53125,8.59472656 L65.53125,8.62890625 L67.8623047,12.1289062 L65.1074219,12.1289062 L63.0703125,8.92285156 L62.25,8.92285156 L62.25,12.1289062 L59.9462891,12.1289062 Z M62.25,6.87207031 L63.3300781,6.87207031 C63.8313827,6.87207031 64.2267238,6.75472123 64.5161133,6.52001953 C64.8055027,6.28531784 64.9501953,5.9651713 64.9501953,5.55957031 C64.9501953,5.17219858 64.8123386,4.8577486 64.5366211,4.61621094 C64.2609036,4.37467327 63.8723983,4.25390625 63.3710937,4.25390625 L62.25,4.25390625 L62.25,6.87207031 Z M71.9082031,12.1289062 L71.9082031,2.18261719 L78.4023438,2.18261719 L78.4023438,4.27441406 L74.2050781,4.27441406 L74.2050781,6.18164062 L77.5205078,6.18164062 L77.5205078,8.23925781 L74.2050781,8.23925781 L74.2050781,10.0439453 L78.6962891,10.0439453 L78.6962891,12.1289062 L71.9082031,12.1289062 Z M88.2441406,12.9560547 L93.5761719,1 L95.1484375,1.72460938 L89.8369141,13.6806641 L88.2441406,12.9560547 Z M104.450195,4.27441406 L104.450195,2.18261719 L112.03125,2.18261719 L112.03125,4.27441406 L109.40625,4.27441406 L109.40625,12.1289062 L107.075195,12.1289062 L107.075195,4.27441406 L104.450195,4.27441406 Z M114.258789,12.1289062 L117.902344,2.18261719 L120.144531,2.18261719 L123.801758,12.1289062 L121.354492,12.1289062 L120.773438,10.3515625 L117.280273,10.3515625 L116.706055,12.1289062 L114.258789,12.1289062 Z M117.922852,8.36914062 L120.130859,8.36914062 L119.037109,5.01269531 L119.009766,5.01269531 L117.922852,8.36914062 Z M127.724609,12.1289062 L127.724609,2.18261719 L134.21875,2.18261719 L134.21875,4.27441406 L130.021484,4.27441406 L130.021484,6.18164062 L133.336914,6.18164062 L133.336914,8.23925781 L130.021484,8.23925781 L130.021484,10.0439453 L134.512695,10.0439453 L134.512695,12.1289062 L127.724609,12.1289062 Z M138.866211,12.1289062 L138.866211,2.18261719 L141.197266,2.18261719 L141.197266,5.99707031 L141.224609,5.99707031 L144.102539,2.18261719 L147.0625,2.18261719 L143.487305,6.49609375 L147.199219,12.1289062 L144.314453,12.1289062 L141.962891,8.3828125 L141.921875,8.3828125 L141.197266,9.2578125 L141.197266,12.1289062 L138.866211,12.1289062 Z M150.390625,2.18261719 L152.885742,2.18261719 L154.567383,8.28710938 L154.587891,8.28710938 L156.125977,2.18261719 L158.59375,2.18261719 L160.111328,8.28710938 L160.131836,8.28710938 L161.813477,2.18261719 L164.308594,2.18261719 L161.198242,12.1289062 L159.058594,12.1289062 L157.390625,5.58691406 L157.370117,5.58691406 L155.640625,12.1289062 L153.500977,12.1289062 L150.390625,2.18261719 Z M167.800781,9.21679688 C167.550129,8.58333017 167.424805,7.89746463 167.424805,7.15917969 C167.424805,6.42089475 167.550129,5.73502921 167.800781,5.1015625 C168.051434,4.46809579 168.398924,3.92692282 168.843262,3.47802734 C169.2876,3.02913187 169.828773,2.67822392 170.466797,2.42529297 C171.104821,2.17236202 171.797522,2.04589844 172.544922,2.04589844 C173.27865,2.04589844 173.961097,2.17008339 174.592285,2.41845703 C175.223473,2.66683067 175.762368,3.01318137 176.208984,3.45751953 C176.655601,3.90185769 177.006509,4.44189135 177.261719,5.07763672 C177.516928,5.71338208 177.644531,6.4072228 177.644531,7.15917969 C177.644531,7.90657926 177.516928,8.59814135 177.261719,9.23388672 C177.006509,9.86963208 176.655601,10.4096657 176.208984,10.8540039 C175.762368,11.2983421 175.223473,11.6446928 174.592285,11.8930664 C173.961097,12.14144 173.27865,12.265625 172.544922,12.265625 C171.797522,12.265625 171.104821,12.1391614 170.466797,11.8862305 C169.828773,11.6332995 169.2876,11.2835309 168.843262,10.8369141 C168.398924,10.3902972 168.051434,9.85026358 167.800781,9.21679688 Z M169.865234,7.15917969 C169.865234,7.69694279 169.978026,8.18798606 170.203613,8.63232422 C170.4292,9.07666238 170.747068,9.42870964 171.157227,9.68847656 C171.567385,9.94824349 172.029945,10.078125 172.544922,10.078125 C173.050784,10.078125 173.507648,9.95052211 173.915527,9.6953125 C174.323407,9.44010289 174.640136,9.09033425 174.865723,8.64599609 C175.09131,8.20165793 175.204102,7.70605742 175.204102,7.15917969 C175.204102,6.61230195 175.09131,6.11556213 174.865723,5.66894531 C174.640136,5.2223285 174.323407,4.87142055 173.915527,4.61621094 C173.507648,4.36100133 173.050784,4.23339844 172.544922,4.23339844 C172.029945,4.23339844 171.567385,4.36327995 171.157227,4.62304688 C170.747068,4.8828138 170.4292,5.23486106 170.203613,5.67919922 C169.978026,6.12353738 169.865234,6.61685927 169.865234,7.15917969 Z M182.011719,12.1289062 L182.011719,2.18261719 L184.356445,2.18261719 L188.191406,8.29394531 L188.21875,8.29394531 L188.21875,2.18261719 L190.556641,2.18261719 L190.556641,12.1289062 L188.143555,12.1289062 L184.370117,6.16796875 L184.342773,6.16796875 L184.342773,12.1289062 L182.011719,12.1289062 Z M195.292969,12.1289062 L195.292969,2.18261719 L198.731445,2.18261719 C199.506189,2.18261719 200.217119,2.30566283 200.864258,2.55175781 C201.511396,2.79785279 202.055987,3.13964625 202.498047,3.57714844 C202.940106,4.01465063 203.283039,4.54101255 203.526855,5.15625 C203.770672,5.77148745 203.892578,6.44368125 203.892578,7.17285156 C203.892578,7.90202188 203.775229,8.57193705 203.540527,9.18261719 C203.305826,9.79329732 202.973147,10.3162413 202.54248,10.7514648 C202.111814,11.1866884 201.574059,11.5250639 200.929199,11.7666016 C200.284339,12.0081392 199.565434,12.1289062 198.772461,12.1289062 L195.292969,12.1289062 Z M197.59668,10.0439453 L198.628906,10.0439453 C198.966148,10.0439453 199.282876,9.99609423 199.579102,9.90039062 C199.875327,9.80468702 200.137369,9.66910895 200.365234,9.49365234 C200.5931,9.31819574 200.789062,9.11311966 200.953125,8.87841797 C201.117188,8.64371627 201.242513,8.38053531 201.329102,8.08886719 C201.415691,7.79719906 201.458984,7.49186357 201.458984,7.17285156 C201.458984,6.62597383 201.343914,6.13151263 201.11377,5.68945312 C200.883625,5.24739362 200.563479,4.90104292 200.15332,4.65039062 C199.743162,4.39973833 199.287437,4.27441406 198.786133,4.27441406 L197.59668,4.27441406 L197.59668,10.0439453 Z M208.273438,9.21679688 C208.022785,8.58333017 207.897461,7.89746463 207.897461,7.15917969 C207.897461,6.42089475 208.022785,5.73502921 208.273438,5.1015625 C208.52409,4.46809579 208.87158,3.92692282 209.315918,3.47802734 C209.760256,3.02913187 210.301429,2.67822392 210.939453,2.42529297 C211.577477,2.17236202 212.270179,2.04589844 213.017578,2.04589844 C213.751306,2.04589844 214.433753,2.17008339 215.064941,2.41845703 C215.696129,2.66683067 216.235024,3.01318137 216.681641,3.45751953 C217.128257,3.90185769 217.479165,4.44189135 217.734375,5.07763672 C217.989585,5.71338208 218.117188,6.4072228 218.117188,7.15917969 C218.117188,7.90657926 217.989585,8.59814135 217.734375,9.23388672 C217.479165,9.86963208 217.128257,10.4096657 216.681641,10.8540039 C216.235024,11.2983421 215.696129,11.6446928 215.064941,11.8930664 C214.433753,12.14144 213.751306,12.265625 213.017578,12.265625 C212.270179,12.265625 211.577477,12.1391614 210.939453,11.8862305 C210.301429,11.6332995 209.760256,11.2835309 209.315918,10.8369141 C208.87158,10.3902972 208.52409,9.85026358 208.273438,9.21679688 Z M210.337891,7.15917969 C210.337891,7.69694279 210.450682,8.18798606 210.67627,8.63232422 C210.901857,9.07666238 211.219725,9.42870964 211.629883,9.68847656 C212.040041,9.94824349 212.502602,10.078125 213.017578,10.078125 C213.52344,10.078125 213.980304,9.95052211 214.388184,9.6953125 C214.796063,9.44010289 215.112792,9.09033425 215.338379,8.64599609 C215.563966,8.20165793 215.676758,7.70605742 215.676758,7.15917969 C215.676758,6.61230195 215.563966,6.11556213 215.338379,5.66894531 C215.112792,5.2223285 214.796063,4.87142055 214.388184,4.61621094 C213.980304,4.36100133 213.52344,4.23339844 213.017578,4.23339844 C212.502602,4.23339844 212.040041,4.36327995 211.629883,4.62304688 C211.219725,4.8828138 210.901857,5.23486106 210.67627,5.67919922 C210.450682,6.12353738 210.337891,6.61685927 210.337891,7.15917969 Z" fill="#A2ABBA"></path>
    </g>
</svg>