<?xml version="1.0" encoding="UTF-8"?>
<svg width="230px" height="15px" viewBox="0 0 230 15" version="1.1" xmlns="http://www.w3.org/2000/svg" xmlns:xlink="http://www.w3.org/1999/xlink">
    <!-- Generator: Sketch 49.3 (51167) - http://www.bohemiancoding.com/sketch -->
    <title>text-4</title>
    <desc>Created with Sketch.</desc>
    <defs></defs>
    <g id="text-4" stroke="none" stroke-width="1" fill="none" fill-rule="evenodd">
        <rect id="Rectangle" x="0" y="0" width="230" height="15"></rect>
        <path d="M0,12.1289062 L0,2.18261719 L2.36523438,2.18261719 L2.36523438,12.1289062 L0,12.1289062 Z M6.57519531,4.27441406 L6.57519531,2.18261719 L14.15625,2.18261719 L14.15625,4.27441406 L11.53125,4.27441406 L11.53125,12.1289062 L9.20019531,12.1289062 L9.20019531,4.27441406 L6.57519531,4.27441406 Z M23.5058594,12.9560547 L28.8378906,1 L30.4101562,1.72460938 L25.0986328,13.6806641 L23.5058594,12.9560547 Z M39.6162109,2.18261719 L42.1113281,2.18261719 L43.7929687,8.28710938 L43.8134766,8.28710938 L45.3515625,2.18261719 L47.8193359,2.18261719 L49.3369141,8.28710938 L49.3574219,8.28710938 L51.0390625,2.18261719 L53.5341797,2.18261719 L50.4238281,12.1289062 L48.2841797,12.1289062 L46.6162109,5.58691406 L46.5957031,5.58691406 L44.8662109,12.1289062 L42.7265625,12.1289062 L39.6162109,2.18261719 Z M57.5800781,12.1289062 L57.5800781,2.18261719 L64.0742188,2.18261719 L64.0742188,4.27441406 L59.8769531,4.27441406 L59.8769531,6.18164062 L63.1923828,6.18164062 L63.1923828,8.23925781 L59.8769531,8.23925781 L59.8769531,10.0439453 L64.3681641,10.0439453 L64.3681641,12.1289062 L57.5800781,12.1289062 Z M68.7216797,12.1289062 L68.7216797,2.18261719 L72.4746094,2.18261719 C73.0214871,2.18261719 73.5022766,2.23730414 73.9169922,2.34667969 C74.3317078,2.45605523 74.6735013,2.61555885 74.9423828,2.82519531 C75.2112644,3.03483178 75.4129225,3.28889825 75.5473633,3.58740234 C75.6818041,3.88590644 75.7490234,4.22883921 75.7490234,4.61621094 C75.7490234,4.83496203 75.7239586,5.04687397 75.6738281,5.25195312 C75.6236977,5.45703228 75.5439459,5.65869042 75.4345703,5.85693359 C75.3251948,6.05517677 75.1748056,6.23746662 74.9833984,6.40380859 C74.7919912,6.57015057 74.5664075,6.70572864 74.3066406,6.81054688 L74.3066406,6.83789062 C74.9628939,7.01562589 75.4527979,7.32096138 75.7763672,7.75390625 C76.0999365,8.18685112 76.2617188,8.72004892 76.2617188,9.35351562 C76.2617188,9.75911661 76.1956387,10.1293929 76.0634766,10.4643555 C75.9313144,10.7993181 75.7353529,11.0909818 75.4755859,11.3393555 C75.215819,11.5877291 74.8820007,11.7814121 74.4741211,11.9204102 C74.0662415,12.0594082 73.6025417,12.1289062 73.0830078,12.1289062 L68.7216797,12.1289062 Z M71.0185547,10.0849609 L72.3652344,10.0849609 C72.5839855,10.0849609 72.7822257,10.0621747 72.9599609,10.0166016 C73.1376962,9.97102842 73.2915033,9.90608766 73.4213867,9.82177734 C73.5512702,9.73746703 73.6515296,9.62923243 73.722168,9.49707031 C73.7928063,9.36490819 73.828125,9.21224045 73.828125,9.0390625 C73.828125,8.72005049 73.7050794,8.46484471 73.4589844,8.2734375 C73.2128894,8.08203029 72.8483097,7.98632812 72.3652344,7.98632812 L71.0185547,7.98632812 L71.0185547,10.0849609 Z M71.0185547,6.14746094 L72.1191406,6.14746094 C72.4882831,6.14746094 72.79134,6.06543051 73.0283203,5.90136719 C73.2653007,5.73730387 73.3837891,5.50260569 73.3837891,5.19726563 C73.3792317,4.9055975 73.2675792,4.67317795 73.0488281,4.5 C72.8346343,4.33137937 72.5110699,4.24707031 72.078125,4.24707031 L71.0185547,4.24707031 L71.0185547,6.14746094 Z M86.9511719,12.1289062 L86.9511719,2.18261719 L90.7041016,2.18261719 C91.2509793,2.18261719 91.7317688,2.23730414 92.1464844,2.34667969 C92.5612,2.45605523 92.9029934,2.61555885 93.171875,2.82519531 C93.4407566,3.03483178 93.6424147,3.28889825 93.7768555,3.58740234 C93.9112962,3.88590644 93.9785156,4.22883921 93.9785156,4.61621094 C93.9785156,4.83496203 93.9534508,5.04687397 93.9033203,5.25195312 C93.8531899,5.45703228 93.773438,5.65869042 93.6640625,5.85693359 C93.554687,6.05517677 93.4042978,6.23746662 93.2128906,6.40380859 C93.0214834,6.57015057 92.7958997,6.70572864 92.5361328,6.81054688 L92.5361328,6.83789062 C93.1923861,7.01562589 93.68229,7.32096138 94.0058594,7.75390625 C94.3294287,8.18685112 94.4912109,8.72004892 94.4912109,9.35351562 C94.4912109,9.75911661 94.4251309,10.1293929 94.2929687,10.4643555 C94.1608066,10.7993181 93.964845,11.0909818 93.7050781,11.3393555 C93.4453112,11.5877291 93.1114929,11.7814121 92.7036133,11.9204102 C92.2957336,12.0594082 91.8320338,12.1289062 91.3125,12.1289062 L86.9511719,12.1289062 Z M89.2480469,10.0849609 L90.5947266,10.0849609 C90.8134777,10.0849609 91.0117179,10.0621747 91.1894531,10.0166016 C91.3671884,9.97102842 91.5209954,9.90608766 91.6508789,9.82177734 C91.7807624,9.73746703 91.8810218,9.62923243 91.9516602,9.49707031 C92.0222985,9.36490819 92.0576172,9.21224045 92.0576172,9.0390625 C92.0576172,8.72005049 91.9345715,8.46484471 91.6884766,8.2734375 C91.4423816,8.08203029 91.0778019,7.98632812 90.5947266,7.98632812 L89.2480469,7.98632812 L89.2480469,10.0849609 Z M89.2480469,6.14746094 L90.3486328,6.14746094 C90.7177753,6.14746094 91.0208321,6.06543051 91.2578125,5.90136719 C91.4947929,5.73730387 91.6132812,5.50260569 91.6132812,5.19726563 C91.6087239,4.9055975 91.4970714,4.67317795 91.2783203,4.5 C91.0641265,4.33137937 90.7405621,4.24707031 90.3076172,4.24707031 L89.2480469,4.24707031 L89.2480469,6.14746094 Z M97.7919922,12.1289062 L101.435547,2.18261719 L103.677734,2.18261719 L107.334961,12.1289062 L104.887695,12.1289062 L104.306641,10.3515625 L100.813477,10.3515625 L100.239258,12.1289062 L97.7919922,12.1289062 Z M101.456055,8.36914062 L103.664062,8.36914062 L102.570312,5.01269531 L102.542969,5.01269531 L101.456055,8.36914062 Z M110.348633,7.18652344 C110.348633,6.61685913 110.420409,6.07454685 110.563965,5.55957031 C110.70752,5.04459378 110.92285,4.57405812 111.209961,4.14794922 C111.497072,3.72184032 111.843422,3.35156407 112.249023,3.03710938 C112.654624,2.72265468 113.131996,2.47884201 113.681152,2.30566406 C114.230309,2.13248611 114.826169,2.04589844 115.46875,2.04589844 C115.938153,2.04589844 116.402992,2.11083919 116.863281,2.24072266 C117.32357,2.37060612 117.784991,2.58251806 118.247559,2.87646484 C118.710126,3.17041163 119.119139,3.533852 119.474609,3.96679688 L117.758789,5.4296875 C117.48535,5.10611817 117.149253,4.83382272 116.750488,4.61279297 C116.351723,4.39176322 115.924481,4.28125 115.46875,4.28125 C115.227212,4.28125 114.992514,4.3108721 114.764648,4.37011719 C114.536783,4.42936228 114.324871,4.51481064 114.128906,4.62646484 C113.932942,4.73811905 113.752931,4.87825437 113.588867,5.046875 C113.424804,5.21549563 113.284669,5.40576066 113.168457,5.61767578 C113.052246,5.8295909 112.96224,6.06884632 112.898438,6.33544922 C112.834635,6.60205211 112.802734,6.88574068 112.802734,7.18652344 C112.802734,7.7106146 112.910969,8.18684682 113.127441,8.61523438 C113.343914,9.04362193 113.657225,9.38427608 114.067383,9.63720703 C114.477541,9.89013798 114.944659,10.0166016 115.46875,10.0166016 C115.906252,10.0166016 116.328937,9.91292421 116.736816,9.70556641 C117.144696,9.4982086 117.48535,9.22363452 117.758789,8.88183594 L119.474609,10.3515625 C119.018878,10.9212268 118.446944,11.3803694 117.758789,11.7290039 C117.070635,12.0776385 116.307296,12.2519531 115.46875,12.2519531 C114.917315,12.2519531 114.388674,12.1824551 113.882812,12.043457 C113.376951,11.9044589 112.909833,11.6948256 112.481445,11.4145508 C112.053058,11.1342759 111.680503,10.7947611 111.36377,10.3959961 C111.047036,9.99723108 110.798666,9.52327749 110.618652,8.97412109 C110.438638,8.4249647 110.348633,7.82910478 110.348633,7.18652344 Z M123.629883,12.1289062 L123.629883,2.18261719 L125.960938,2.18261719 L125.960938,5.99707031 L125.988281,5.99707031 L128.866211,2.18261719 L131.826172,2.18261719 L128.250977,6.49609375 L131.962891,12.1289062 L129.078125,12.1289062 L126.726562,8.3828125 L126.685547,8.3828125 L125.960938,9.2578125 L125.960938,12.1289062 L123.629883,12.1289062 Z M135.831055,12.1289062 L135.831055,2.18261719 L142.325195,2.18261719 L142.325195,4.27441406 L138.12793,4.27441406 L138.12793,6.18164062 L141.443359,6.18164062 L141.443359,8.23925781 L138.12793,8.23925781 L138.12793,10.0439453 L142.619141,10.0439453 L142.619141,12.1289062 L135.831055,12.1289062 Z M146.972656,12.1289062 L146.972656,2.18261719 L149.317383,2.18261719 L153.152344,8.29394531 L153.179688,8.29394531 L153.179688,2.18261719 L155.517578,2.18261719 L155.517578,12.1289062 L153.104492,12.1289062 L149.331055,6.16796875 L149.303711,6.16796875 L149.303711,12.1289062 L146.972656,12.1289062 Z M160.253906,12.1289062 L160.253906,2.18261719 L163.692383,2.18261719 C164.467126,2.18261719 165.178057,2.30566283 165.825195,2.55175781 C166.472334,2.79785279 167.016925,3.13964625 167.458984,3.57714844 C167.901044,4.01465063 168.243977,4.54101255 168.487793,5.15625 C168.731609,5.77148745 168.853516,6.44368125 168.853516,7.17285156 C168.853516,7.90202188 168.736167,8.57193705 168.501465,9.18261719 C168.266763,9.79329732 167.934084,10.3162413 167.503418,10.7514648 C167.072752,11.1866884 166.534997,11.5250639 165.890137,11.7666016 C165.245277,12.0081392 164.526371,12.1289062 163.733398,12.1289062 L160.253906,12.1289062 Z M162.557617,10.0439453 L163.589844,10.0439453 C163.927085,10.0439453 164.243814,9.99609423 164.540039,9.90039062 C164.836265,9.80468702 165.098306,9.66910895 165.326172,9.49365234 C165.554038,9.31819574 165.749999,9.11311966 165.914062,8.87841797 C166.078126,8.64371627 166.20345,8.38053531 166.290039,8.08886719 C166.376628,7.79719906 166.419922,7.49186357 166.419922,7.17285156 C166.419922,6.62597383 166.304851,6.13151263 166.074707,5.68945312 C165.844563,5.24739362 165.524416,4.90104292 165.114258,4.65039062 C164.7041,4.39973833 164.248375,4.27441406 163.74707,4.27441406 L162.557617,4.27441406 L162.557617,10.0439453 Z" fill="#A2ABBA"></path>
    </g>
</svg>