<?xml version="1.0" encoding="UTF-8"?>
<svg width="230px" height="15px" viewBox="0 0 230 15" version="1.1" xmlns="http://www.w3.org/2000/svg" xmlns:xlink="http://www.w3.org/1999/xlink">
    <!-- Generator: Sketch 49.3 (51167) - http://www.bohemiancoding.com/sketch -->
    <title>text-3</title>
    <desc>Created with Sketch.</desc>
    <defs></defs>
    <g id="text-3" stroke="none" stroke-width="1" fill="none" fill-rule="evenodd">
        <rect id="Rectangle" x="0" y="0" width="230" height="15"></rect>
        <path d="M0,13.1044922 L0,3.15820312 L2.3515625,3.15820312 L2.3515625,11.0195312 L6.52148438,11.0195312 L6.52148438,13.1044922 L0,13.1044922 Z M10.1230469,13.1044922 L13.7666016,3.15820312 L16.0087891,3.15820312 L19.6660156,13.1044922 L17.21875,13.1044922 L16.6376953,11.3271484 L13.1445312,11.3271484 L12.5703125,13.1044922 L10.1230469,13.1044922 Z M13.7871094,9.34472656 L15.9951172,9.34472656 L14.9013672,5.98828125 L14.8740234,5.98828125 L13.7871094,9.34472656 Z M23.5957031,13.1044922 L23.5957031,3.15820312 L25.9404297,3.15820312 L29.7753906,9.26953125 L29.8027344,9.26953125 L29.8027344,3.15820312 L32.140625,3.15820312 L32.140625,13.1044922 L29.7275391,13.1044922 L25.9541016,7.14355469 L25.9267578,7.14355469 L25.9267578,13.1044922 L23.5957031,13.1044922 Z M36.5146484,8.15527344 C36.5146484,7.43066044 36.6297189,6.75618802 36.8598633,6.13183594 C37.0900077,5.50748386 37.4158508,4.96517157 37.8374023,4.50488281 C38.2589539,4.04459405 38.7887338,3.68229299 39.4267578,3.41796875 C40.0647818,3.15364451 40.771155,3.02148438 41.5458984,3.02148438 C42.2887407,3.02148438 43.021318,3.17529143 43.7436523,3.48291016 C44.4659867,3.79052888 45.0732397,4.22916382 45.5654297,4.79882812 L43.9111328,6.20703125 C43.2366503,5.55077797 42.4459681,5.22265625 41.5390625,5.22265625 C41.1881493,5.22265625 40.8566096,5.28873632 40.5444336,5.42089844 C40.2322576,5.55306056 39.9588228,5.74218627 39.7241211,5.98828125 C39.4894194,6.23437623 39.3025723,6.54426896 39.1635742,6.91796875 C39.0245761,7.29166854 38.9550781,7.70409931 38.9550781,8.15527344 C38.9550781,8.55631711 39.0166009,8.93456854 39.1396484,9.29003906 C39.2626959,9.64550959 39.4370106,9.95540232 39.6625977,10.2197266 C39.8881847,10.4840508 40.170734,10.6936841 40.5102539,10.8486328 C40.8497738,11.0035815 41.2246073,11.0810547 41.6347656,11.0810547 C42.2272165,11.0810547 42.7945936,10.9329442 43.3369141,10.6367188 L43.3369141,9.50878906 L41.4296875,9.50878906 L41.4296875,7.53320312 L45.5859375,7.53320312 L45.5859375,12.0039062 C45.1302061,12.3639341 44.5457392,12.6555978 43.8325195,12.8789062 C43.1192998,13.1022147 42.3867225,13.2138672 41.6347656,13.2138672 C41.060544,13.2138672 40.5159531,13.1432299 40.0009766,13.0019531 C39.486,12.8606764 39.0166037,12.6476251 38.5927734,12.362793 C38.1689432,12.0779608 37.8020849,11.735028 37.4921875,11.3339844 C37.1822901,10.9329407 36.9418954,10.4612657 36.7709961,9.91894531 C36.6000968,9.37662489 36.5146484,8.78874015 36.5146484,8.15527344 Z M50.0078125,8.95507812 L50.0078125,3.15820312 L52.3662109,3.15820312 L52.3662109,8.8046875 C52.3662109,9.11458488 52.4038082,9.40397001 52.4790039,9.67285156 C52.5541996,9.94173312 52.6624342,10.1787099 52.8037109,10.3837891 C52.9449877,10.5888682 53.1272775,10.7506504 53.3505859,10.8691406 C53.5738943,10.9876308 53.8268215,11.046875 54.109375,11.046875 C54.6334662,11.046875 55.060708,10.8463562 55.3911133,10.4453125 C55.7215186,10.0442688 55.8867188,9.4973993 55.8867188,8.8046875 L55.8867188,3.15820312 L58.2382812,3.15820312 L58.2382812,8.95507812 C58.2382812,9.82096787 58.0799169,10.5751921 57.7631836,11.2177734 C57.4464502,11.8603548 56.9759146,12.3582339 56.3515625,12.7114258 C55.7272104,13.0646177 54.9798221,13.2412109 54.109375,13.2412109 C53.4941375,13.2412109 52.9347356,13.1466481 52.4311523,12.9575195 C51.9275691,12.768391 51.49577,12.4949562 51.1357422,12.137207 C50.7757143,11.7794578 50.4977223,11.3294298 50.3017578,10.7871094 C50.1057933,10.244789 50.0078125,9.63411798 50.0078125,8.95507812 Z M61.6279297,13.1044922 L65.2714844,3.15820312 L67.5136719,3.15820312 L71.1708984,13.1044922 L68.7236328,13.1044922 L68.1425781,11.3271484 L64.6494141,11.3271484 L64.0751953,13.1044922 L61.6279297,13.1044922 Z M65.2919922,9.34472656 L67.5,9.34472656 L66.40625,5.98828125 L66.3789062,5.98828125 L65.2919922,9.34472656 Z M74.1845703,8.15527344 C74.1845703,7.43066044 74.2996408,6.75618802 74.5297852,6.13183594 C74.7599295,5.50748386 75.0857726,4.96517157 75.5073242,4.50488281 C75.9288758,4.04459405 76.4586557,3.68229299 77.0966797,3.41796875 C77.7347037,3.15364451 78.4410769,3.02148438 79.2158203,3.02148438 C79.9586626,3.02148438 80.6912399,3.17529143 81.4135742,3.48291016 C82.1359086,3.79052888 82.7431616,4.22916382 83.2353516,4.79882812 L81.5810547,6.20703125 C80.9065721,5.55077797 80.11589,5.22265625 79.2089844,5.22265625 C78.8580712,5.22265625 78.5265315,5.28873632 78.2143555,5.42089844 C77.9021794,5.55306056 77.6287447,5.74218627 77.394043,5.98828125 C77.1593413,6.23437623 76.9724942,6.54426896 76.8334961,6.91796875 C76.694498,7.29166854 76.625,7.70409931 76.625,8.15527344 C76.625,8.55631711 76.6865228,8.93456854 76.8095703,9.29003906 C76.9326178,9.64550959 77.1069325,9.95540232 77.3325195,10.2197266 C77.5581066,10.4840508 77.8406559,10.6936841 78.1801758,10.8486328 C78.5196957,11.0035815 78.8945292,11.0810547 79.3046875,11.0810547 C79.8971384,11.0810547 80.4645155,10.9329442 81.0068359,10.6367188 L81.0068359,9.50878906 L79.0996094,9.50878906 L79.0996094,7.53320312 L83.2558594,7.53320312 L83.2558594,12.0039062 C82.8001279,12.3639341 82.2156611,12.6555978 81.5024414,12.8789062 C80.7892217,13.1022147 80.0566444,13.2138672 79.3046875,13.2138672 C78.7304659,13.2138672 78.185875,13.1432299 77.6708984,13.0019531 C77.1559219,12.8606764 76.6865256,12.6476251 76.2626953,12.362793 C75.8388651,12.0779608 75.4720068,11.735028 75.1621094,11.3339844 C74.852212,10.9329407 74.6118173,10.4612657 74.440918,9.91894531 C74.2700187,9.37662489 74.1845703,8.78874015 74.1845703,8.15527344 Z M87.7802734,13.1044922 L87.7802734,3.15820312 L94.2744141,3.15820312 L94.2744141,5.25 L90.0771484,5.25 L90.0771484,7.15722656 L93.3925781,7.15722656 L93.3925781,9.21484375 L90.0771484,9.21484375 L90.0771484,11.0195312 L94.5683594,11.0195312 L94.5683594,13.1044922 L87.7802734,13.1044922 Z M104.116211,13.9316406 L109.448242,1.97558594 L111.020508,2.70019531 L105.708984,14.65625 L104.116211,13.9316406 Z M120.90332,13.1044922 L120.90332,3.15820312 L127.397461,3.15820312 L127.397461,5.25 L123.200195,5.25 L123.200195,7.15722656 L126.515625,7.15722656 L126.515625,9.21484375 L123.200195,9.21484375 L123.200195,11.0195312 L127.691406,11.0195312 L127.691406,13.1044922 L120.90332,13.1044922 Z M131.416016,11.6552734 L132.796875,9.94628906 C133.156903,10.3382181 133.545408,10.6344391 133.962402,10.8349609 C134.379397,11.0354828 134.772459,11.1357422 135.141602,11.1357422 C135.401368,11.1357422 135.617838,11.0981449 135.791016,11.0229492 C135.964194,10.9477535 136.0861,10.8509121 136.156738,10.7324219 C136.227377,10.6139317 136.262695,10.4772143 136.262695,10.3222656 C136.262695,10.0533841 136.160157,9.84033282 135.955078,9.68310547 C135.749999,9.52587812 135.358076,9.35156346 134.779297,9.16015625 C134.537759,9.07812459 134.322429,8.99951209 134.133301,8.92431641 C133.944172,8.84912072 133.740235,8.75569717 133.521484,8.64404297 C133.302733,8.53238876 133.112468,8.41845761 132.950684,8.30224609 C132.788899,8.18603458 132.629395,8.04703857 132.472168,7.88525391 C132.314941,7.72346924 132.187338,7.5514332 132.089355,7.36914062 C131.991373,7.18684805 131.911621,6.97721473 131.850098,6.74023438 C131.788574,6.50325402 131.757812,6.24804824 131.757812,5.97460938 C131.757812,5.43228896 131.902505,4.93668844 132.191895,4.48779297 C132.481284,4.0388975 132.875486,3.68571092 133.374512,3.42822266 C133.873538,3.17073439 134.421546,3.03743494 135.018555,3.02832031 L135.09375,3.02832031 C136.310553,3.02832031 137.438471,3.46125869 138.477539,4.32714844 L137.144531,6.06347656 C136.351559,5.42545254 135.667972,5.10644531 135.09375,5.10644531 C134.815754,5.10644531 134.594727,5.174804 134.430664,5.31152344 C134.262043,5.45280019 134.180013,5.64648314 134.18457,5.89257812 C134.18457,6.1067719 134.28483,6.28678312 134.485352,6.43261719 C134.685873,6.57845125 135.068682,6.76074109 135.633789,6.97949219 C136.472335,7.30306151 137.037433,7.54687418 137.329102,7.7109375 C137.939782,8.05273608 138.343098,8.48111722 138.539062,8.99609375 C138.652995,9.30143382 138.709961,9.65234177 138.709961,10.0488281 C138.709961,10.5000023 138.634766,10.9101544 138.484375,11.2792969 C138.333984,11.6484393 138.136883,11.9514962 137.893066,12.1884766 C137.64925,12.4254569 137.366701,12.6259757 137.04541,12.7900391 C136.724119,12.9541024 136.400555,13.0703122 136.074707,13.1386719 C135.748859,13.2070316 135.419598,13.2412109 135.086914,13.2412109 C134.426103,13.2412109 133.780114,13.1090508 133.148926,12.8447266 C132.517738,12.5804023 131.940107,12.1839219 131.416016,11.6552734 Z M142.960938,13.1044922 L142.960938,3.15820312 L146.741211,3.15820312 C147.338219,3.15820312 147.86572,3.24365149 148.32373,3.41455078 C148.781741,3.58545007 149.152017,3.8258448 149.43457,4.13574219 C149.717124,4.44563957 149.929036,4.80680132 150.070312,5.21923828 C150.211589,5.63167524 150.282227,6.08853916 150.282227,6.58984375 C150.282227,7.31445675 150.12728,7.92740635 149.817383,8.42871094 C149.507485,8.93001553 149.076826,9.30029177 148.525391,9.53955078 C147.973956,9.77880979 147.319991,9.8984375 146.563477,9.8984375 L145.264648,9.8984375 L145.264648,13.1044922 L142.960938,13.1044922 Z M145.264648,7.84082031 L146.249023,7.84082031 C146.759443,7.84082031 147.154784,7.72574985 147.435059,7.49560547 C147.715333,7.26546109 147.855469,6.94531455 147.855469,6.53515625 C147.855469,6.14778452 147.72103,5.83333454 147.452148,5.59179688 C147.183267,5.35025921 146.793622,5.22949219 146.283203,5.22949219 L145.264648,5.22949219 L145.264648,7.84082031 Z M152.769531,13.1044922 L156.413086,3.15820312 L158.655273,3.15820312 L162.3125,13.1044922 L159.865234,13.1044922 L159.28418,11.3271484 L155.791016,11.3271484 L155.216797,13.1044922 L152.769531,13.1044922 Z M156.433594,9.34472656 L158.641602,9.34472656 L157.547852,5.98828125 L157.520508,5.98828125 L156.433594,9.34472656 Z M166.242188,13.1044922 L166.242188,3.15820312 L168.586914,3.15820312 L172.421875,9.26953125 L172.449219,9.26953125 L172.449219,3.15820312 L174.787109,3.15820312 L174.787109,13.1044922 L172.374023,13.1044922 L168.600586,7.14355469 L168.573242,7.14355469 L168.573242,13.1044922 L166.242188,13.1044922 Z M167.732422,1.77050781 C167.891928,1.24185934 168.125487,0.816896138 168.433105,0.495605469 C168.740724,0.1743148 169.106443,0.013671875 169.530273,0.013671875 C169.717123,0.013671875 169.897135,0.0364581055 170.070312,0.08203125 C170.24349,0.127604395 170.363118,0.167480298 170.429199,0.201660156 C170.49528,0.235840015 170.605793,0.296223525 170.760742,0.3828125 C170.856446,0.442057588 170.93278,0.487630049 170.989746,0.51953125 C171.046713,0.551432451 171.118489,0.581054551 171.205078,0.608398438 C171.291667,0.635742324 171.375976,0.649414062 171.458008,0.649414062 C171.772463,0.649414062 172.032226,0.432944873 172.237305,0 L173.495117,0.416992188 C173.340168,0.986656494 173.110028,1.44465973 172.804688,1.79101562 C172.499347,2.13737152 172.141604,2.31054688 171.731445,2.31054688 C171.567382,2.31054688 171.4056,2.29003927 171.246094,2.24902344 C171.086588,2.20800761 170.955567,2.16357446 170.853027,2.11572266 C170.750488,2.06787085 170.635417,2.00520872 170.507812,1.92773438 C170.39388,1.86393197 170.308431,1.8172202 170.251465,1.78759766 C170.194498,1.75797511 170.120443,1.72835301 170.029297,1.69873047 C169.938151,1.66910792 169.851563,1.65429688 169.769531,1.65429688 C169.455077,1.65429688 169.202149,1.87532331 169.010742,2.31738281 L167.732422,1.77050781 Z M179.537109,10.1923828 C179.286457,9.5589161 179.161133,8.87305057 179.161133,8.13476562 C179.161133,7.39648068 179.286457,6.71061515 179.537109,6.07714844 C179.787762,5.44368173 180.135252,4.90250875 180.57959,4.45361328 C181.023928,4.00471781 181.565101,3.65380986 182.203125,3.40087891 C182.841149,3.14794795 183.53385,3.02148438 184.28125,3.02148438 C185.014978,3.02148438 185.697425,3.14566933 186.328613,3.39404297 C186.959801,3.64241661 187.498696,3.98876731 187.945312,4.43310547 C188.391929,4.87744363 188.742837,5.41747729 188.998047,6.05322266 C189.253256,6.68896802 189.380859,7.38280874 189.380859,8.13476562 C189.380859,8.8821652 189.253256,9.57372729 188.998047,10.2094727 C188.742837,10.845218 188.391929,11.3852517 187.945312,11.8295898 C187.498696,12.273928 186.959801,12.6202787 186.328613,12.8686523 C185.697425,13.117026 185.014978,13.2412109 184.28125,13.2412109 C183.53385,13.2412109 182.841149,13.1147474 182.203125,12.8618164 C181.565101,12.6088855 181.023928,12.2591168 180.57959,11.8125 C180.135252,11.3658832 179.787762,10.8258495 179.537109,10.1923828 Z M181.601562,8.13476562 C181.601562,8.67252873 181.714354,9.163572 181.939941,9.60791016 C182.165528,10.0522483 182.483396,10.4042956 182.893555,10.6640625 C183.303713,10.9238294 183.766273,11.0537109 184.28125,11.0537109 C184.787112,11.0537109 185.243976,10.926108 185.651855,10.6708984 C186.059735,10.4156888 186.376464,10.0659202 186.602051,9.62158203 C186.827638,9.17724387 186.94043,8.68164336 186.94043,8.13476562 C186.94043,7.58788789 186.827638,7.09114807 186.602051,6.64453125 C186.376464,6.19791443 186.059735,5.84700648 185.651855,5.59179688 C185.243976,5.33658727 184.787112,5.20898438 184.28125,5.20898438 C183.766273,5.20898438 183.303713,5.33886589 182.893555,5.59863281 C182.483396,5.85839974 182.165528,6.210447 181.939941,6.65478516 C181.714354,7.09912332 181.601562,7.59244521 181.601562,8.13476562 Z M193.748047,13.1044922 L193.748047,3.15820312 L196.099609,3.15820312 L196.099609,11.0195312 L200.269531,11.0195312 L200.269531,13.1044922 L193.748047,13.1044922 Z" fill="#A2ABBA"></path>
    </g>
</svg>