<?xml version="1.0" encoding="UTF-8"?>
<svg width="25px" height="25px" viewBox="0 0 25 25" version="1.1" xmlns="http://www.w3.org/2000/svg" xmlns:xlink="http://www.w3.org/1999/xlink">
    <g id="icon-settings" stroke="none" stroke-width="1" fill="none" fill-rule="evenodd">
        <rect id="Rectangle-11" x="0" y="0" width="25" height="25"></rect>
        <path d="M18.3146311,13.140625 L20.0724436,14.5078125 C20.2547362,14.6640633 20.2937983,14.8463531 20.1896311,15.0546875 L18.5099436,17.9453125 C18.4057765,18.1536469 18.2365073,18.2057297 18.0021311,18.1015625 L15.9318186,17.28125 C15.4630663,17.6197934 14.994321,17.8932281 14.5255686,18.1015625 L14.2130686,20.2890625 C14.1870268,20.5234387 14.0437991,20.640625 13.7833811,20.640625 L10.4630686,20.640625 C10.2286925,20.640625 10.0854647,20.5234387 10.0333811,20.2890625 L9.72088114,18.1015625 C9.226087,17.8932281 8.75734169,17.6197934 8.31463114,17.28125 L6.24431864,18.1015625 C6.00994247,18.1796879 5.84067333,18.1276051 5.73650614,17.9453125 L4.05681864,15.0546875 C3.95265145,14.8463531 3.99171356,14.6640633 4.17400614,14.5078125 L5.93181864,13.140625 C5.90577685,12.8281234 5.89275614,12.5546887 5.89275614,12.3203125 C5.89275614,12.0859363 5.90577685,11.8125016 5.93181864,11.5 L4.17400614,10.1328125 C3.99171356,9.97656172 3.95265145,9.79427187 4.05681864,9.5859375 L5.73650614,6.6953125 C5.86671513,6.48697813 6.03598427,6.43489531 6.24431864,6.5390625 L8.31463114,7.359375 C8.78338349,7.02083164 9.2521288,6.74739687 9.72088114,6.5390625 L10.0333811,4.3515625 C10.0854647,4.11718633 10.2286925,4 10.4630686,4 L13.7833811,4 C14.0437991,4 14.1870268,4.11718633 14.2130686,4.3515625 L14.5255686,6.5390625 C15.0203628,6.74739687 15.4891081,7.02083164 15.9318186,7.359375 L18.0021311,6.5390625 C18.2365073,6.46093711 18.4057765,6.51301992 18.5099436,6.6953125 L20.1896311,9.5859375 C20.2937983,9.79427187 20.2547362,9.97656172 20.0724436,10.1328125 L18.3146311,11.5 C18.3667147,11.8125016 18.3927561,12.0859363 18.3927561,12.3203125 C18.3927561,12.5546887 18.3667147,12.8281234 18.3146311,13.140625 Z M10.0724436,14.390625 C10.6453632,14.9635445 11.3289501,15.25 12.1232249,15.25 C12.9174997,15.25 13.6010866,14.9635445 14.1740061,14.390625 C14.7469257,13.8177055 15.0333811,13.1276082 15.0333811,12.3203125 C15.0333811,11.5130168 14.7469257,10.8229195 14.1740061,10.25 C13.6010866,9.67708047 12.9174997,9.390625 12.1232249,9.390625 C11.3289501,9.390625 10.6453632,9.67708047 10.0724436,10.25 C9.49952411,10.8229195 9.21306864,11.5130168 9.21306864,12.3203125 C9.21306864,13.1276082 9.49952411,13.8177055 10.0724436,14.390625 Z" fill="#C2C2C2"></path>
    </g>
</svg>